<svg xmlns="http://www.w3.org/2000/svg" width="512" height="512" viewBox="0 0 512 512">
  <defs>
    <linearGradient id="bg" x1="0" y1="0" x2="1" y2="1">
      <stop offset="0%" stop-color="#0E2D49"/>
      <stop offset="100%" stop-color="#133E63"/>
    </linearGradient>
    <radialGradient id="orb" cx="63%" cy="35%" r="45%">
      <stop offset="0%" stop-color="#52D7FF" stop-opacity="0.85"/>
      <stop offset="100%" stop-color="#52D7FF" stop-opacity="0"/>
    </radialGradient>
  </defs>
  <rect x="40" y="40" width="432" height="432" rx="88" fill="url(#bg)"/>
  <circle cx="322" cy="194" r="138" fill="url(#orb)"/>
  <rect x="199" y="106" width="114" height="194" rx="56" fill="#ECF9FF"/>
  <rect x="220" y="338" width="72" height="30" rx="10" fill="#ECF9FF"/>
  <rect x="248" y="296" width="16" height="48" fill="#ECF9FF"/>
  <path d="M164 251c0 60 42 109 92 109s92-49 92-109" fill="none" stroke="#ECF9FF" stroke-width="16" stroke-linecap="round"/>
  <path d="M110 206a76 76 0 0 1 42-62" fill="none" stroke="#60DDFF" stroke-width="12" stroke-linecap="round"/>
  <path d="M402 206a76 76 0 0 0-42-62" fill="none" stroke="#60DDFF" stroke-width="12" stroke-linecap="round"/>
</svg>
